<svg width="36" height="36" viewBox="0 0 36 36" fill="none" xmlns="http://www.w3.org/2000/svg">
<path d="M36 13.1569C36 11.9775 35.5259 10.8463 34.682 10.0123C33.8381 9.17827 32.6935 8.70973 31.5 8.70973C30.3065 8.70973 29.1619 9.17827 28.318 10.0123C27.4741 10.8463 27 11.9775 27 13.1569C26.9998 13.4557 27.0305 13.7538 27.0915 14.0464L24.6165 15.511L21.231 8.82832C21.8463 8.20101 22.2611 7.40846 22.4234 6.54962C22.5858 5.69079 22.4886 4.80371 22.144 3.99914C21.7993 3.19457 21.2225 2.50815 20.4855 2.02557C19.7485 1.543 18.8841 1.28564 18 1.28564C17.1159 1.28564 16.2514 1.543 15.5145 2.02557C14.7775 2.50815 14.2007 3.19457 13.856 3.99914C13.5114 4.80371 13.4142 5.69079 13.5765 6.54962C13.7389 7.40846 14.1536 8.20101 14.769 8.82832L11.3835 15.511L8.90849 14.0464C8.96951 13.7538 9.00017 13.4557 8.99999 13.1569C9.00196 12.3205 8.76517 11.5004 8.3168 10.7909C7.86844 10.0814 7.22669 9.51121 6.46525 9.14589C5.7038 8.78058 4.85354 8.6349 4.0121 8.7256C3.17066 8.81629 2.37217 9.13968 1.70831 9.65862C1.04445 10.1776 0.542152 10.871 0.25909 11.6594C-0.0239714 12.4477 -0.0763159 13.299 0.108068 14.1154C0.292451 14.9318 0.706086 15.6802 1.30147 16.2748C1.89686 16.8694 2.64985 17.286 3.47399 17.4767L4.37399 25.495C3.95326 25.7632 3.60713 26.1311 3.36714 26.5654C3.12715 26.9996 3.00093 27.4862 2.99999 27.981V30.9458C2.99999 31.7321 3.31606 32.4863 3.87867 33.0423C4.44128 33.5983 5.20434 33.9106 5.99999 33.9106H30C30.7956 33.9106 31.5587 33.5983 32.1213 33.0423C32.6839 32.4863 33 31.7321 33 30.9458V27.981C32.9987 27.486 32.8721 26.9991 32.6315 26.5649C32.391 26.1306 32.0443 25.7628 31.623 25.495L32.523 17.4767C33.5102 17.2489 34.3906 16.6985 35.0217 15.9144C35.6528 15.1304 35.9975 14.1588 36 13.1569ZM31.5 11.6745C31.7967 11.6745 32.0867 11.7615 32.3333 11.9244C32.58 12.0873 32.7723 12.3188 32.8858 12.5897C32.9993 12.8605 33.029 13.1586 32.9712 13.4462C32.9133 13.7337 32.7704 13.9979 32.5606 14.2052C32.3509 14.4125 32.0836 14.5537 31.7926 14.6109C31.5017 14.6681 31.2001 14.6387 30.926 14.5265C30.6519 14.4143 30.4176 14.2243 30.2528 13.9805C30.088 13.7368 30 13.4501 30 13.1569C30 12.7638 30.158 12.3867 30.4393 12.1087C30.7206 11.8307 31.1022 11.6745 31.5 11.6745ZM18 4.26251C18.2967 4.26251 18.5867 4.34945 18.8333 4.51234C19.08 4.67523 19.2723 4.90675 19.3858 5.17762C19.4993 5.4485 19.529 5.74656 19.4712 6.03412C19.4133 6.32168 19.2704 6.58582 19.0606 6.79314C18.8509 7.00045 18.5836 7.14164 18.2926 7.19884C18.0017 7.25604 17.7001 7.22668 17.426 7.11448C17.1519 7.00228 16.9176 6.81228 16.7528 6.5685C16.588 6.32472 16.5 6.03811 16.5 5.74492C16.5 5.35176 16.658 4.9747 16.9393 4.6967C17.2206 4.41869 17.6022 4.26251 18 4.26251ZM12 19.0866C12.1416 19.086 12.2824 19.066 12.4185 19.0273C12.6171 18.9705 12.8017 18.8738 12.9607 18.7432C13.1198 18.6126 13.2497 18.4509 13.3425 18.2683L17.463 10.1388C17.6407 10.1672 17.8201 10.185 18 10.1921C18.1799 10.185 18.3592 10.1672 18.537 10.1388L22.6575 18.2683C22.7503 18.4509 22.8802 18.6126 23.0392 18.7432C23.1982 18.8738 23.3829 18.9705 23.5815 19.0273C23.7175 19.0661 23.8584 19.0861 24 19.0866C24.2715 19.0867 24.538 19.0139 24.771 18.8761L28.6575 16.5769C28.9297 16.799 29.2272 16.989 29.544 17.1431L28.6575 25.0162H7.34249L6.44999 17.1431C6.76673 16.989 7.06423 16.799 7.33649 16.5769L11.223 18.8761C11.4577 19.015 11.7264 19.0877 12 19.0866ZM4.49999 11.6745C4.79666 11.6745 5.08667 11.7615 5.33334 11.9244C5.58002 12.0873 5.77228 12.3188 5.88581 12.5897C5.99934 12.8605 6.02904 13.1586 5.97117 13.4462C5.91329 13.7337 5.77043 13.9979 5.56065 14.2052C5.35087 14.4125 5.0836 14.5537 4.79262 14.6109C4.50165 14.6681 4.20005 14.6387 3.92596 14.5265C3.65187 14.4143 3.41761 14.2243 3.25278 13.9805C3.08796 13.7368 2.99999 13.4501 2.99999 13.1569C2.99999 12.7638 3.15802 12.3867 3.43933 12.1087C3.72063 11.8307 4.10216 11.6745 4.49999 11.6745ZM5.99999 30.9458V27.981H30V30.9458H5.99999Z" fill="#F19F00"/>
</svg>
