<svg width="78" height="36" viewBox="0 0 78 36" fill="none" xmlns="http://www.w3.org/2000/svg">
<g clip-path="url(#clip0_2731_15428)">
<path d="M19.5283 20.3901L20.9831 25.3807H9.23258L7.33011 31.044C6.54674 33.4552 4.25258 35.1374 1.67865 35.1374H0L0.223821 34.4084C1.1191 31.8291 3.02157 26.2778 4.98 20.3901H19.5283Z" fill="#FEA80A"/>
<path d="M25.4589 20.39H19.5276C18.8002 18.2593 18.1288 16.4088 17.5692 14.7267C16.3942 11.3062 15.4989 8.78289 14.9393 6.93247L11.582 0.764648H18.5205L25.4589 20.39Z" fill="#FEA80A"/>
<path d="M14.9392 6.87663C14.0439 10.1289 12.701 14.1661 11.0223 19.1006L10.6307 20.3903H5.03516C5.37089 19.381 5.70662 18.3156 6.04235 17.3062C8.16864 10.9139 10.3509 4.35333 11.47 1.10109L11.5819 0.764648L14.9392 6.87663Z" fill="url(#paint0_linear_2731_15428)"/>
<path d="M30.6084 35.0813H28.5381C26.0201 35.0813 23.7259 33.4552 22.9426 31.1001L20.9841 25.3807L19.5293 20.3901H25.4605L27.1951 25.3807L30.6084 35.0813Z" fill="url(#paint1_linear_2731_15428)"/>
<path d="M58.4705 20.3901L57.0156 25.3807H68.8221L70.6687 31.044C71.452 33.4552 73.7462 35.1374 76.3201 35.1374H77.9988L77.7749 34.4084C76.8797 31.8291 74.9772 26.2778 73.0188 20.3901H58.4705Z" fill="#FEA80A"/>
<path d="M52.541 20.39H58.4723C59.1997 18.2592 59.8711 16.4088 60.4307 14.7266C61.6057 11.3062 62.501 8.78288 63.0606 6.93246L66.4325 0.764648H59.4794L52.541 20.39Z" fill="#FEA80A"/>
<path d="M63.0605 6.87664C63.9558 10.1289 65.2987 14.1661 66.9774 19.1006L67.425 20.3903H73.0205L66.4321 0.765154L63.0605 6.87664Z" fill="url(#paint2_linear_2731_15428)"/>
<path d="M47.3926 35.0813H49.4629C51.9809 35.0813 54.275 33.4552 55.0584 31.1001L57.0168 25.3807L58.4717 20.3901H52.5404L50.8058 25.3807L47.3926 35.0813Z" fill="url(#paint3_linear_2731_15428)"/>
<path d="M48.1771 10.6335H42.3578L42.3018 10.1849C41.7982 6.98877 39.7838 5.41873 36.2587 5.41873C33.8526 5.41873 30.9989 6.14768 30.9989 9.51207C30.9989 11.026 31.4465 11.9793 32.9573 12.8204H25.4034C25.1236 11.9232 25.0117 11.026 25.0117 9.90458C25.0117 4.40941 29.3762 0.820722 36.2587 0.764648H36.3706C43.2531 0.764648 47.6735 4.24119 48.1211 10.0728L48.1771 10.6335Z" fill="url(#paint4_linear_2731_15428)"/>
<path d="M48.9045 25.1003C48.9045 29.5301 46.4425 32.7824 42.1899 34.2403C41.9101 34.3524 41.6303 34.4085 41.3505 34.5207C40.3434 34.801 39.2802 34.9692 38.1052 35.0253C37.6016 35.0814 37.098 35.0814 36.5944 35.0814C29.2083 35.0814 24.4521 31.3245 23.9485 24.9882L23.8926 24.4275H29.7119L29.7679 24.8761C30.3274 28.4647 32.8454 30.4273 36.8182 30.4273C37.2658 30.4273 37.6575 30.4273 38.1052 30.3712C39.4481 30.203 40.5672 29.8105 41.3505 29.1937C41.6863 28.9133 41.9661 28.633 42.1899 28.2404C42.6375 27.5676 42.9173 26.6704 42.9173 25.6611C42.9173 25.0443 42.8613 24.4835 42.6935 23.9789C42.078 21.9602 40.1755 20.8388 35.5312 19.5491C29.544 17.8669 26.4665 15.9043 25.4034 12.8203H32.9013C33.9645 13.4371 35.5312 13.9418 37.7694 14.6147C45.1555 16.6894 48.4009 19.3809 48.8485 23.9789C48.9045 24.3153 48.9045 24.7078 48.9045 25.1003Z" fill="url(#paint5_linear_2731_15428)"/>
</g>
<defs>
<linearGradient id="paint0_linear_2731_15428" x1="10.4922" y1="11.412" x2="8.5125" y2="20.0699" gradientUnits="userSpaceOnUse">
<stop stop-color="#FEA80A"/>
<stop offset="1" stop-color="#FEA80A" stop-opacity="0"/>
</linearGradient>
<linearGradient id="paint1_linear_2731_15428" x1="22.3936" y1="23.3151" x2="30.9005" y2="35.6107" gradientUnits="userSpaceOnUse">
<stop stop-color="#FEA80A"/>
<stop offset="1" stop-color="#FEA80A" stop-opacity="0"/>
</linearGradient>
<linearGradient id="paint2_linear_2731_15428" x1="67.5075" y1="11.4122" x2="69.4873" y2="20.07" gradientUnits="userSpaceOnUse">
<stop stop-color="#FEA80A"/>
<stop offset="1" stop-color="#FEA80A" stop-opacity="0"/>
</linearGradient>
<linearGradient id="paint3_linear_2731_15428" x1="55.6074" y1="23.3151" x2="47.1005" y2="35.6107" gradientUnits="userSpaceOnUse">
<stop stop-color="#FEA80A"/>
<stop offset="1" stop-color="#FEA80A" stop-opacity="0"/>
</linearGradient>
<linearGradient id="paint4_linear_2731_15428" x1="36.7623" y1="0.764649" x2="28.0655" y2="12.5225" gradientUnits="userSpaceOnUse">
<stop stop-color="#FEA80A"/>
<stop offset="0.368297" stop-color="#FEA80A" stop-opacity="0.92"/>
<stop offset="1" stop-color="#FEA80A" stop-opacity="0"/>
</linearGradient>
<linearGradient id="paint5_linear_2731_15428" x1="49.0723" y1="18.4276" x2="37.0144" y2="31.5795" gradientUnits="userSpaceOnUse">
<stop stop-color="#FEA80A"/>
<stop offset="0.533643" stop-color="#FEA80A"/>
<stop offset="1" stop-color="#FEA80A" stop-opacity="0"/>
</linearGradient>
<clipPath id="clip0_2731_15428">
<rect width="78" height="36" fill="white"/>
</clipPath>
</defs>
</svg>
