<svg width="34" height="34" viewBox="0 0 34 34" fill="none" xmlns="http://www.w3.org/2000/svg">
<path d="M32.0877 25.8696H30.3798C27.9967 25.8696 25.5541 25.8696 23.1313 25.8895C21.5624 25.9094 20.1524 27.0615 19.7751 28.6309C19.7155 28.909 19.6758 29.1673 19.656 29.4255C19.5964 30.538 18.9808 31.114 17.8687 31.114C14.2146 31.114 10.5605 31.114 6.92634 31.114H4.64255C4.54326 31.114 4.44396 31.114 4.32481 31.114C3.53045 31.0743 2.89496 30.4188 2.85524 29.644C2.83538 29.1871 2.83538 28.7104 2.85524 28.2137C2.8751 27.5383 3.312 26.9821 3.96735 26.7834C4.14608 26.7238 4.32481 26.7238 4.5234 26.7238H4.62269C6.13198 26.6841 7.78028 26.6046 9.46829 26.3265C9.80589 26.2669 10.1634 26.2073 10.4811 26.1279C10.7591 26.0683 11.0372 26.0087 11.2953 25.969C11.335 25.969 11.4542 25.9292 11.5932 25.8895C11.9308 25.81 12.7847 25.5915 12.9039 25.6312L13.0429 25.4922L6.9462 19.334L6.88662 19.6518C6.86676 19.7512 6.8469 19.8703 6.82704 19.9895L6.68803 20.804C6.46958 22.0158 6.27099 23.2474 6.0724 24.4791C6.05254 24.6181 6.01283 24.6579 5.87381 24.638C5.45677 24.6181 5.01987 24.638 4.60284 24.638H4.4241C4.36453 24.638 4.32481 24.638 4.26523 24.638C2.23961 24.7373 1.20695 26.3464 0.90906 27.8164C0.611175 29.2864 0.928919 30.7962 1.78286 31.8292C2.51764 32.7231 3.55031 33.1999 4.76171 33.1999C8.95196 33.1999 13.1422 33.1999 17.3523 33.1999H17.3722C18.385 33.1999 19.4574 33.1403 20.3709 32.3854C21.205 31.6901 21.7014 30.6969 21.7412 29.6639C21.7809 28.5514 22.3965 27.9356 23.5086 27.9356C24.1441 27.9356 24.7796 27.9356 25.4151 27.9356H27.9173C29.3074 27.9356 30.6777 27.9356 32.0678 27.9356C32.743 27.9356 33.1998 27.5184 33.1998 26.9026C33.1601 26.3067 32.7033 25.8696 32.0877 25.8696Z" fill="#F19F00"/>
<path d="M8.11851 17.5659C8.05893 17.6255 7.97949 17.6851 7.97949 17.8043C7.97949 17.8837 8.01921 17.9632 8.09865 18.0426C8.67456 18.6187 9.27033 19.1948 9.82638 19.7709C10.0647 20.0093 10.2831 20.2278 10.5214 20.4662C10.5612 20.5059 10.581 20.5258 10.6207 20.5456L10.7399 20.645L10.8789 20.5258C10.9186 20.4861 10.9583 20.4463 11.0179 20.4066L13.4606 17.9632C16.8763 14.5066 20.3119 11.07 23.7475 7.63328C23.827 7.55382 23.9064 7.45449 23.9064 7.35517C23.9064 7.23597 23.827 7.15651 23.7475 7.07705C22.973 6.34204 22.1985 5.5673 21.4439 4.77269C21.3645 4.69323 21.2652 4.61377 21.1659 4.61377C21.0666 4.61377 20.9673 4.67336 20.868 4.77269C19.736 5.92487 18.5842 7.07705 17.4522 8.22923L8.15822 17.5261C8.13836 17.5261 8.11851 17.546 8.11851 17.5659Z" fill="#F19F00"/>
<path d="M27.1427 10.4939C26.5667 9.91786 26.0107 9.36163 25.4348 8.78554C25.3553 8.70608 25.2759 8.64648 25.1766 8.64648C25.0773 8.64648 24.9979 8.70608 24.9184 8.78554C20.7282 12.9771 16.4188 17.2878 12.1292 21.5787C12.0697 21.6383 11.9902 21.7376 11.9902 21.837C11.9902 21.9363 12.0697 22.0158 12.1292 22.0952C12.864 22.8104 13.6385 23.5851 14.413 24.3797C14.4925 24.479 14.6116 24.5585 14.7308 24.5585C14.8499 24.5585 14.9691 24.479 15.0485 24.3797C18.5238 20.8834 22.019 17.407 25.4944 13.9108L27.7384 11.666C27.7781 11.6263 27.8179 11.5865 27.8576 11.5468C27.8774 11.5269 27.8973 11.4872 27.9172 11.4673L27.9767 11.368L27.8774 11.2488C27.8377 11.2091 27.798 11.1694 27.7781 11.1296L27.1427 10.4939Z" fill="#F19F00"/>
<path d="M28.9871 9.99739C29.0466 10.057 29.1062 10.1166 29.2055 10.1166C29.3048 10.1166 29.3644 10.057 29.424 9.99739C29.6226 9.79873 29.8211 9.58022 30.0396 9.38157C30.2779 9.14318 30.5162 8.92467 30.7347 8.68628C32.0851 7.29572 32.1049 5.24961 30.7942 3.83918C30.0992 3.0843 29.3644 2.38902 28.6693 1.73347C28.0338 1.13751 27.2593 0.81967 26.3458 0.799805C25.4323 0.799805 24.6379 1.09778 24.0223 1.65401C23.7046 1.93212 23.4067 2.2301 23.1287 2.52808C22.9301 2.72673 22.7513 2.90551 22.5527 3.10417C22.4932 3.16376 22.4336 3.22336 22.4336 3.32268C22.4336 3.42201 22.4932 3.48161 22.5527 3.5412C24.6975 5.70651 26.8423 7.85195 28.9871 9.99739Z" fill="#F19F00"/>
<path d="M31.4117 17.8441L31.372 17.6653C31.3521 17.5659 31.2727 17.5063 31.1734 17.5063C31.0741 17.5063 31.0145 17.5659 30.9748 17.6653L30.9152 17.8441C30.8954 17.9434 30.8556 18.0427 30.8358 18.142C30.6968 18.6188 30.3989 18.9366 29.9223 19.0956C29.8031 19.1353 29.684 19.175 29.5648 19.1949L29.4059 19.2346C29.3066 19.2545 29.2471 19.3339 29.2471 19.4333C29.2471 19.5326 29.3066 19.5922 29.4059 19.6319L29.5847 19.6717C29.7038 19.7114 29.8031 19.7312 29.9223 19.771C30.3592 19.91 30.6769 20.1881 30.8159 20.6252C30.8557 20.7444 30.8954 20.8834 30.9351 21.0225C30.9549 21.0821 30.9748 21.1417 30.9947 21.2013C31.0344 21.3403 31.1337 21.3602 31.1933 21.3602C31.2925 21.3602 31.3521 21.3006 31.3918 21.2013L31.5309 20.7245C31.6699 20.2676 31.9678 19.9498 32.4047 19.7908C32.5238 19.7511 32.6628 19.7114 32.782 19.6717C32.8416 19.6518 32.9011 19.6319 32.9607 19.6121C33.06 19.5723 33.1196 19.5127 33.1196 19.4134C33.1196 19.3737 33.0997 19.2545 32.9607 19.2148L32.4841 19.0757C31.9876 18.9366 31.6699 18.6188 31.5309 18.142C31.4713 18.0626 31.4514 17.9632 31.4117 17.8441Z" fill="#F19F00"/>
<path d="M5.05842 5.28956L5.27687 5.34915C5.41588 5.38888 5.57475 5.42861 5.71377 5.46834C6.30954 5.64713 6.70672 6.02457 6.90531 6.60066C6.96488 6.75958 7.0046 6.93837 7.06418 7.11715C7.08404 7.19661 7.1039 7.27608 7.12376 7.35554C7.16347 7.51446 7.28263 7.55419 7.34221 7.55419C7.40178 7.55419 7.52094 7.53432 7.56065 7.35554L7.62023 7.15688C7.65995 7.01783 7.69967 6.87877 7.73939 6.73972C7.91812 6.12389 8.3153 5.70673 8.89121 5.50807C9.05008 5.44848 9.22881 5.40875 9.38768 5.36902C9.46712 5.34915 9.54656 5.32929 9.62599 5.30942C9.80472 5.24983 9.82458 5.13064 9.82458 5.0909C9.82458 5.03131 9.80472 4.91212 9.62599 4.87239L9.01036 4.6936C8.35502 4.49495 7.93798 4.09765 7.73939 3.44209C7.69967 3.30304 7.65995 3.16398 7.62023 3.02492L7.56065 2.78654C7.56065 2.64749 7.48122 2.58789 7.36206 2.58789C7.26277 2.58789 7.16347 2.64749 7.14362 2.76668L7.08404 3.00506C7.04432 3.12425 7.0046 3.26331 6.96488 3.3825C6.78615 4.01818 6.36911 4.43535 5.75349 4.63401C5.59461 4.67374 5.43574 4.73333 5.29673 4.77306L5.07828 4.83266C4.95913 4.87239 4.89955 4.95185 4.89955 5.05117C4.87969 5.17037 4.95913 5.24983 5.05842 5.28956Z" fill="#F19F00"/>
</svg>
