<svg width="36" height="36" viewBox="0 0 36 36" fill="none" xmlns="http://www.w3.org/2000/svg">
<rect x="2.7002" y="1.7998" width="30.6" height="23.4" rx="2" stroke="#F19F00" stroke-width="2.6"/>
<path d="M3.58594 25.2735L12.1592 16.7003C12.5497 16.3098 13.1828 16.3098 13.5734 16.7003L15.4346 18.5615C15.8251 18.952 16.4583 18.952 16.8488 18.5615L23.0578 12.3525C23.4558 11.9544 24.1038 11.9632 24.4909 12.3718L33.6105 21.9981" stroke="#F19F00" stroke-width="2.6"/>
<circle cx="14.4297" cy="9.02931" r="2.72951" stroke="#F19F00" stroke-width="2"/>
<path d="M7.65836 33.5289C7.28788 34.2699 7.58821 35.1709 8.32918 35.5413C9.07015 35.9118 9.97116 35.6115 10.3416 34.8705L7.65836 33.5289ZM10.3416 34.8705L14.8416 25.8705L12.1584 24.5289L7.65836 33.5289L10.3416 34.8705Z" fill="#F19F00"/>
<path d="M28.3416 33.5289C28.7121 34.2699 28.4118 35.1709 27.6708 35.5413C26.9299 35.9118 26.0288 35.6115 25.6584 34.8705L28.3416 33.5289ZM25.6584 34.8705L21.1584 25.8705L23.8416 24.5289L28.3416 33.5289L25.6584 34.8705Z" fill="#F19F00"/>
</svg>
