<svg width="36" height="36" viewBox="0 0 36 36" fill="none" xmlns="http://www.w3.org/2000/svg">
<g clip-path="url(#clip0_2731_15741)">
<path fill-rule="evenodd" clip-rule="evenodd" d="M7.35711 5.68479C4.62114 7.05277 3.5 8.6651 3.5 10C3.5 11.3349 4.62114 12.9472 7.35711 14.3152C10.0034 15.6383 13.7641 16.5 18 16.5C22.2359 16.5 25.9966 15.6383 28.6429 14.3152C31.3789 12.9472 32.5 11.3349 32.5 10C32.5 8.6651 31.3789 7.05277 28.6429 5.68479C25.9966 4.36166 22.2359 3.5 18 3.5C13.7641 3.5 10.0034 4.36166 7.35711 5.68479ZM6.01547 3.0015C9.16008 1.4292 13.3993 0.5 18 0.5C22.6007 0.5 26.8399 1.4292 29.9845 3.0015C33.0394 4.52895 35.5 6.91662 35.5 10C35.5 11.4789 34.9339 12.7978 34.0077 13.9384C35.0098 15.1426 35.5 16.5565 35.5 17.9999C35.5 19.4866 34.9373 20.8077 34.0158 21.9481C35.0125 23.1502 35.5 24.5604 35.5 25.9999C35.5 29.1141 33.0309 31.5021 29.9671 33.0234C26.8175 34.5874 22.5791 35.4999 18 35.4999C13.421 35.4999 9.18254 34.5874 6.03289 33.0234C2.96913 31.5021 0.5 29.1141 0.5 25.9999C0.5 24.5216 1.09942 23.14 2.01844 21.9903C1.07667 20.8403 0.5 19.5049 0.5 17.9999C0.5 16.5173 1.10291 15.132 2.02645 13.9802C1.08001 12.83 0.5 11.497 0.5 10C0.5 6.91662 2.96058 4.52895 6.01547 3.0015ZM4.25975 23.9934C3.74754 24.6786 3.5 25.3825 3.5 25.9999C3.5 27.3658 4.63087 28.9778 7.36711 30.3365C10.0175 31.6525 13.779 32.4999 18 32.4999C22.221 32.4999 25.9825 31.6525 28.6329 30.3365C31.3691 28.9778 32.5 27.3658 32.5 25.9999C32.5 25.3215 32.2939 24.6167 31.7862 23.962C31.2169 24.3525 30.6049 24.7067 29.9671 25.0234C26.8175 26.5874 22.5791 27.4999 18 27.4999C13.421 27.4999 9.18254 26.5874 6.03289 25.0234C5.41224 24.7153 4.816 24.3715 4.25975 23.9934ZM29.9845 16.9985C30.6123 16.6846 31.215 16.3344 31.7764 15.9493C32.2912 16.6076 32.5 17.3171 32.5 17.9999C32.5 19.3658 31.3691 20.9778 28.6329 22.3365C25.9825 23.6525 22.221 24.4999 18 24.4999C13.779 24.4999 10.0175 23.6525 7.36711 22.3365C4.63087 20.9778 3.5 19.3658 3.5 17.9999C3.5 17.3786 3.75064 16.6698 4.26937 15.9805C4.81771 16.3534 5.40471 16.6931 6.01547 16.9985C9.16008 18.5708 13.3993 19.5 18 19.5C22.6007 19.5 26.8399 18.5708 29.9845 16.9985Z" fill="#F19F00"/>
</g>
<defs>
<clipPath id="clip0_2731_15741">
<rect width="36" height="36" fill="white"/>
</clipPath>
</defs>
</svg>
