<svg width="32" height="32" viewBox="0 0 32 32" fill="none" xmlns="http://www.w3.org/2000/svg">
<path d="M16.4613 0.711452C16.6073 0.564988 16.7809 0.448824 16.972 0.369633C17.1631 0.290443 17.3679 0.249787 17.5748 0.250001H25.4493C25.6562 0.249787 25.861 0.290443 26.0521 0.369633C26.2432 0.448824 26.4168 0.564988 26.5628 0.711452L31.2876 5.43621C31.4341 5.58221 31.5503 5.75576 31.6295 5.94685C31.7087 6.13795 31.7493 6.34282 31.749 6.54967V14.4243C31.749 14.8432 31.5837 15.2432 31.2876 15.5377L15.5384 31.2869C15.3925 31.4337 15.219 31.5501 15.0279 31.6296C14.8368 31.7091 14.6319 31.75 14.4249 31.75C14.218 31.75 14.013 31.7091 13.822 31.6296C13.6309 31.5501 13.4574 31.4337 13.3115 31.2869L0.712101 18.6876C0.565718 18.5414 0.449589 18.3679 0.370354 18.1768C0.291119 17.9858 0.250336 17.7809 0.250336 17.5741C0.250336 17.3673 0.291119 17.1625 0.370354 16.9714C0.449589 16.7803 0.565718 16.6068 0.712101 16.4606L16.4613 0.711452ZM14.4249 27.9465L28.5992 13.7723V7.20169L24.7973 3.39984H18.2268L4.0525 17.5741L14.4249 27.9465Z" fill="#F19F00"/>
<path d="M21.7479 12.8499C20.3153 12.8499 19.154 11.6886 19.154 10.256C19.154 8.82343 20.3153 7.66211 21.7479 7.66211C23.1805 7.66211 24.3418 8.82343 24.3418 10.256C24.3418 11.6886 23.1805 12.8499 21.7479 12.8499Z" fill="#F19F00"/>
</svg>
